<?xml version="1.0" standalone="no"?>
<!DOCTYPE svg PUBLIC "-//W3C//DTD SVG 20010904//EN"
 "http://www.w3.org/TR/2001/REC-SVG-20010904/DTD/svg10.dtd">
<svg version="1.0" xmlns="http://www.w3.org/2000/svg"
 width="699.000000pt" height="699.000000pt" viewBox="0 0 699.000000 699.000000"
 preserveAspectRatio="xMidYMid meet">
<metadata>
Created by potrace 1.11, written by Peter Selinger 2001-2013
</metadata>
<g transform="translate(0.000000,699.000000) scale(0.100000,-0.100000)"
fill="#000000" stroke="none">
<path d="M3375 6733 c-687 -31 -1380 -305 -1920 -759 -630 -529 -1023 -1254
-1131 -2089 -21 -162 -24 -561 -6 -720 92 -787 422 -1460 977 -1995 154 -149
205 -191 390 -321 512 -361 1076 -549 1753 -584 l132 -7 0 1601 0 1601 1605 0
1605 0 -5 83 c-2 45 -7 127 -10 182 -13 242 -74 546 -160 800 -165 491 -416
896 -785 1265 -564 564 -1288 888 -2100 939 -159 11 -191 11 -345 4z m-1085
-1493 l0 -230 235 0 236 0 -3 -127 -3 -128 -232 -3 -233 -2 0 -230 0 -230
-125 0 -125 0 0 230 0 230 -232 2 -233 3 -3 128 -3 127 236 0 236 0 -3 230 -3
230 128 0 127 0 0 -230z m3298 -357 l-3 -128 -590 0 -590 0 -3 114 c-1 63 0
121 2 128 4 10 118 13 596 13 l591 0 -3 -127z m-3591 -2385 l163 -163 165 165
165 165 90 -90 90 -90 -160 -160 c-88 -88 -160 -164 -160 -170 0 -5 72 -82
160 -170 l160 -160 -90 -90 -90 -90 -165 165 -165 165 -165 -165 -165 -165
-90 90 -90 90 160 160 c88 88 160 165 160 170 0 6 -72 82 -160 170 l-160 160
87 87 c48 49 90 88 93 88 2 0 78 -73 167 -162z"/>
<path d="M4417 2533 c-4 -3 -7 -57 -7 -120 l0 -113 585 0 585 0 0 120 0 120
-578 0 c-318 0 -582 -3 -585 -7z"/>
<path d="M4413 1994 c-2 -5 -2 -59 -1 -120 l3 -109 583 -3 583 -2 -3 120 -3
120 -579 3 c-402 1 -580 -1 -583 -9z"/>
</g>
</svg>
